<svg xmlns="http://www.w3.org/2000/svg" version="1.1" xmlns:xlink="http://www.w3.org/1999/xlink" xmlns:svgjs="http://svgjs.dev/svgjs" width="1500" height="1500" viewBox="0 0 1500 1500"><rect width="1500" height="1500" fill="#ffffff"></rect><g transform="matrix(0.6666666666666666,0,0,0.6666666666666666,249.39393939393938,622.4956716446527)"><svg viewBox="0 0 396 101" data-background-color="#ffffff" preserveAspectRatio="xMidYMid meet" height="382" width="1500" xmlns="http://www.w3.org/2000/svg" xmlns:xlink="http://www.w3.org/1999/xlink"><g id="tight-bounds" transform="matrix(1,0,0,1,0.2400000000000091,0.06781608857357924)"><svg viewBox="0 0 395.52 100.86436782285283" height="100.86436782285283" width="395.52"><g><svg viewBox="0 0 395.52 100.86436782285283" height="100.86436782285283" width="395.52"><g><svg viewBox="0 0 395.52 100.86436782285283" height="100.86436782285283" width="395.52"><g id="textblocktransform"><svg viewBox="0 0 395.52 100.86436782285283" height="100.86436782285283" width="395.52" id="textblock"><g><svg viewBox="0 0 395.52 66.94294582786019" height="66.94294582786019" width="395.52"><g transform="matrix(1,0,0,1,0,0)"><svg width="395.52" viewBox="1 -39.6 238.085087890625 40.300000000000004" height="66.94294582786019" data-palette-color="#000000"><g transform="matrix(1,0,0,1,0,0)"><g><svg width="6.87005859375" viewBox="3.16 -36.36 28.68 36.36" height="8.712" data-palette-color="#000000" id="scriptelement" x="232.215029296875" y="-8.712"><path d="M10.85 0L3.16 0 3.16-36.36 17.51-36.36Q21.63-36.36 24.55-34.9 27.47-33.43 29-30.76 30.54-28.09 30.54-24.49L30.54-24.49Q30.54-20.86 28.98-18.26 27.41-15.66 24.46-14.28 21.5-12.89 17.31-12.89L17.31-12.89 7.71-12.89 7.71-19.07 16.07-19.07Q18.27-19.07 19.73-19.67 21.18-20.28 21.9-21.48 22.62-22.69 22.62-24.49L22.62-24.49Q22.62-26.3 21.9-27.54 21.18-28.78 19.72-29.43 18.25-30.08 16.03-30.08L16.03-30.08 10.85-30.08 10.85 0ZM14.51-16.55L22.8-16.55 31.84 0 23.35 0 14.51-16.55Z" opacity="1" transform="matrix(1,0,0,1,0,0)" fill="#000000" class="undefined-123" data-fill-palette-color="primary" id="tk-123"></path></svg></g></g><path d="M24.05 0L1 0 1-8.2 3.5-8.2 3.5-30.7 1-30.7 1-38.9 30.9-38.9 30.9-25.95 22.05-25.95 22.05-30.7 17.5-30.7 17.5-22.4 25.05-22.4 25.05-16.7 17.5-16.7 17.5-8.2 24.05-8.2 24.05 0ZM55.85-38.9L64.3-8.2 66.3-8.2 66.3 0 46.7 0 46.7-8.2 49.7-8.2 48.9-12.2 42.1-12.2 41.3-8.2 44.3-8.2 44.3 0 27.2 0 27.2-8.2 29.2-8.2 37.65-38.9 55.85-38.9ZM45.25-27.45L43.2-17.5 47.8-17.5 45.75-27.45 45.25-27.45ZM67.9 0L67.9-8.2 70.4-8.2 70.4-30.65 67.9-30.65 67.9-38.9 88.2-38.9Q96.55-38.9 101.47-34.33 106.4-29.75 106.4-19.45L106.4-19.45Q106.4-9.15 101.47-4.58 96.55 0 88.2 0L88.2 0 67.9 0ZM84.4-8.2L87.3-8.2Q89-8.2 89.85-9.1 90.7-10 90.7-11.9L90.7-11.9 90.7-27Q90.7-30.7 87.3-30.7L87.3-30.7 84.4-30.7 84.4-8.2ZM141.84 0L108.09 0 108.09-8.2 110.59-8.2 110.59-30.7 108.09-30.7 108.09-38.9 141.84-38.9 141.84-23.8 130.64-23.8 130.64-30.7 124.59-30.7 124.59-22.8 128.99-22.8 128.99-17.1 124.59-17.1 124.59-8.2 130.64-8.2 130.64-16.1 141.84-16.1 141.84 0ZM169.79-20.05L179.94-8.2 182.04-8.2 182.04 0 163.14 0 163.14-8.2 165.19-8.2 162.29-12.3 161.79-12.3 158.89-8.2 160.94-8.2 160.94 0 143.44 0 143.44-8.2 146.04-8.2 155.64-19 145.64-30.7 143.54-30.7 143.54-38.9 162.29-38.9 162.29-30.7 160.39-30.7 163.14-26.6 163.64-26.6 166.39-30.7 164.49-30.7 164.49-38.9 181.84-38.9 181.84-30.7 179.24-30.7 169.79-20.05ZM192.54 0L184.74 0 184.74-8.2 192.54-8.2 192.54 0ZM211.19-39.6Q220.09-39.6 224.44-34.83 228.78-30.05 228.78-20.2L228.78-20.2Q228.78-9.4 223.71-4.35 218.63 0.7 209.74 0.7L209.74 0.7Q206.09 0.7 202.94 0.08 199.78-0.55 197.88-1.55L197.88-1.55 197.88-11.65Q199.78-10.8 202.24-10.28 204.69-9.75 207.44-9.75L207.44-9.75Q214.59-9.75 214.59-15.05L214.59-15.05 214.59-15.6Q211.38-14.35 207.69-14.35L207.69-14.35Q201.88-14.35 198.66-17.48 195.44-20.6 195.44-26.2L195.44-26.2Q195.44-32.85 199.53-36.23 203.63-39.6 211.19-39.6L211.19-39.6ZM207.78-26.4Q207.78-24.4 208.66-23.3 209.53-22.2 211.34-22.2L211.34-22.2Q213.03-22.2 214.59-22.85L214.59-22.85 214.59-26.85Q214.59-28.85 213.74-29.78 212.88-30.7 211.19-30.7L211.19-30.7Q209.49-30.7 208.63-29.65 207.78-28.6 207.78-26.4L207.78-26.4Z" opacity="1" transform="matrix(1,0,0,1,0,0)" fill="#000000" class="wordmark-text-0" data-fill-palette-color="primary" id="text-0"></path></svg></g></svg></g><g transform="matrix(1,0,0,1,0,82.74656870711812)"><svg viewBox="0 0 232.209792 18.11779911573472" height="18.11779911573472" width="232.209792"><g transform="matrix(1,0,0,1,0,0)"><svg width="232.209792" viewBox="1.71 -31.74 525.63 41.019999999999996" height="18.11779911573472" data-palette-color="#000000"><path d="M7.18 0L20.61 0Q20.61-1.07 19.82-1.22L19.82-1.22Q19.58-1.27 19.34-1.27L19.34-1.27 16.02-1.27 16.02-28.03 18.85-28.03Q22.8-28.03 24.12-23.24L24.12-23.24Q24.12-23.05 24.17-22.95L24.17-22.95 24.95-19.68 26.32-19.68 26.07-29.3 1.95-29.3 1.71-19.68 3.08-19.68 3.86-22.95Q5.42-27.73 9.18-28.03L9.18-28.03 11.82-28.03 11.82-1.27 7.18-1.27 7.18 0ZM39.35-1.22L39.35-1.22 36.91-1.22 36.91-11.77Q36.91-16.21 39.99-18.21L39.99-18.21Q41.26-19.04 42.62-19.04L42.62-19.04Q45.6-19.04 46.77-16.26L46.77-16.26Q47.31-14.94 47.31-13.33L47.31-13.33 47.31-4.15Q47.31-1.9 46.24-1.46L46.24-1.46Q45.55-1.22 43.89-1.22L43.89-1.22 43.89 0 54.64 0Q54.64-1.07 53.9-1.17L53.9-1.17Q53.71-1.22 53.42-1.22L53.42-1.22 50.97-1.22 50.97-13.33Q50.97-18.65 47.46-20.56L47.46-20.56Q46.09-21.24 44.53-21.24L44.53-21.24Q40.92-21.24 38.47-18.6L38.47-18.6Q37.45-17.48 36.91-16.06L36.91-16.06 36.91-31.74 29.59-31.74 29.59-30.52 33.25-30.52 33.25-4.15Q33.25-1.9 31.98-1.46L31.98-1.46Q31.25-1.22 29.59-1.22L29.59-1.22 29.59 0 40.57 0Q40.57-1.07 39.84-1.17L39.84-1.17Q39.65-1.22 39.35-1.22ZM68.06-20.02L68.06-20.02Q71.48-20.02 72.6-17.14L72.6-17.14Q72.99-16.21 72.99-15.14L72.99-15.14Q72.99-12.7 70.65-12.16L70.65-12.16Q69.43-11.91 67.18-11.96L67.18-11.96 62.01-12.11Q62.25-17.72 65.67-19.43L65.67-19.43Q66.79-20.02 68.06-20.02ZM76.56-4.69L76.56-4.69 75.34-5.13Q73.63-1.42 69.82-0.93L69.82-0.93Q69.33-0.88 68.89-0.88L68.89-0.88Q63.76-0.88 62.45-6.98L62.45-6.98Q62.06-8.69 62.01-10.74L62.01-10.74 67.87-10.64Q73.82-10.55 75.53-11.77L75.53-11.77Q76.85-12.74 76.85-14.55L76.85-14.55Q76.85-17.87 73.48-19.82L73.48-19.82Q71.09-21.24 67.96-21.24L67.96-21.24Q61.86-21.24 59.22-16.16L59.22-16.16Q57.86-13.53 57.86-10.21L57.86-10.21Q57.86-4.15 62.2-1.22L62.2-1.22Q64.79 0.49 68.11 0.49L68.11 0.49Q73.38 0.49 75.87-3.32L75.87-3.32Q76.26-4 76.56-4.69ZM88.56-29.3L88.56-28.03 92.47-28.03 92.47-10.99Q92.57 0.44 103.85 0.49L103.85 0.49Q112.44 0.49 114.25-6.54L114.25-6.54Q114.78-8.69 114.78-11.43L114.78-11.43 114.78-28.03 118.69-28.03 118.69-29.3 109.17-29.3 109.17-28.03 113.08-28.03 113.08-11.13Q113.08-1.66 106.04-0.93L106.04-0.93Q105.46-0.88 104.87-0.88L104.87-0.88Q98.92-0.88 97.35-5.91L97.35-5.91Q96.67-8.11 96.67-11.28L96.67-11.28 96.67-28.03 100.53-28.03 100.53-29.3 88.56-29.3ZM129.92-1.22L129.92-1.22 127.72-1.22 127.72-11.77Q127.87-16.31 130.94-18.31L130.94-18.31Q132.26-19.14 133.63-19.14L133.63-19.14Q136.61-19.14 137.68-16.36L137.68-16.36Q138.12-15.23 138.12-13.82L138.12-13.82 138.12-4.15Q138.12-1.9 136.85-1.46L136.85-1.46Q136.12-1.22 134.46-1.22L134.46-1.22 134.46 0 145.45 0Q145.45-1.07 144.71-1.17L144.71-1.17Q144.52-1.22 144.23-1.22L144.23-1.22 141.78-1.22 141.78-13.33Q141.78-18.21 138.42-20.31L138.42-20.31Q136.85-21.24 135.05-21.24L135.05-21.24Q131.43-21.24 129.09-18.36L129.09-18.36Q128.21-17.24 127.67-15.87L127.67-15.87 127.48-20.75 120.4-20.75 120.4-19.53 124.06-19.53 124.06-4.15Q124.06-1.9 122.79-1.46L122.79-1.46Q122.06-1.22 120.4-1.22L120.4-1.22 120.4 0 131.14 0Q131.14-1.07 130.41-1.17L130.41-1.17Q130.21-1.22 129.92-1.22ZM158.14-1.22L158.14-1.22 155.7-1.22 155.7-20.75 148.13-20.75 148.13-19.53 152.04-19.53 152.04-4.15Q152.04-1.9 150.52-1.42L150.52-1.42Q149.79-1.22 148.13-1.22L148.13-1.22 148.13 0 159.36 0Q159.36-1.07 158.63-1.17L158.63-1.17Q158.38-1.22 158.14-1.22ZM156.28-27.88L156.28-27.88Q156.28-29.59 154.77-30.32L154.77-30.32Q154.18-30.57 153.65-30.57L153.65-30.57Q151.94-30.57 151.21-29L151.21-29Q150.96-28.47 150.96-27.88L150.96-27.88Q150.96-26.07 152.57-25.39L152.57-25.39Q153.11-25.2 153.65-25.2L153.65-25.2Q155.36-25.2 156.04-26.76L156.04-26.76Q156.28-27.29 156.28-27.88ZM162.78-9.52L162.78-9.52Q162.78-3.47 166.78-0.83L166.78-0.83Q168.78 0.49 171.27 0.49L171.27 0.49Q175.57 0.49 178.11-2.98L178.11-2.98Q178.69-3.86 179.13-4.79L179.13-4.79 179.08 5.13Q179.08 7.28 177.67 7.76L177.67 7.76Q176.74 8.06 174.45 8.06L174.45 8.06 174.45 9.28 186.46 9.28Q186.46 8.2 185.72 8.11L185.72 8.11Q185.53 8.06 185.24 8.06L185.24 8.06 182.75 8.06 182.75-19.53 186.41-19.53 186.41-20.75 179.57-20.75 179.33-18.65Q176.64-21.24 172.64-21.24L172.64-21.24Q168.1-21.24 165.27-17.72L165.27-17.72Q162.78-14.55 162.78-9.52ZM179.13-11.33L179.13-11.33Q179.13-4.54 175.62-2.29L175.62-2.29Q174.3-1.46 172.74-1.46L172.74-1.46Q168.49-1.46 167.32-6.59L167.32-6.59Q166.93-8.25 166.93-10.4L166.93-10.4Q166.93-17.38 170.64-19.38L170.64-19.38Q171.81-20.02 173.27-20.02L173.27-20.02Q177.86-20.02 178.89-14.45L178.89-14.45Q179.13-13.04 179.13-11.33ZM212.82-1.22L212.82-1.22 210.38-1.22 210.38-20.75 202.71-20.75 202.71-19.53 206.72-19.53 206.72-8.98Q206.72-4.59 203.64-2.54L203.64-2.54Q202.27-1.61 200.81-1.61L200.81-1.61Q196.81-1.61 196.17-5.71L196.17-5.71Q196.07-6.4 196.07-7.18L196.07-7.18 196.07-20.75 188.65-20.75 188.65-19.53 192.41-19.53 192.41-7.91Q192.46 0.44 199.39 0.49L199.39 0.49Q203.06 0.49 205.4-2.49L205.4-2.49Q206.28-3.61 206.82-4.98L206.82-4.98 207.16 0 214.04 0Q214.04-1.07 213.31-1.17L213.31-1.17Q213.11-1.22 212.82-1.22ZM227.52-20.02L227.52-20.02Q230.93-20.02 232.06-17.14L232.06-17.14Q232.45-16.21 232.45-15.14L232.45-15.14Q232.45-12.7 230.1-12.16L230.1-12.16Q228.88-11.91 226.64-11.96L226.64-11.96 221.46-12.11Q221.71-17.72 225.12-19.43L225.12-19.43Q226.25-20.02 227.52-20.02ZM236.01-4.69L236.01-4.69 234.79-5.13Q233.08-1.42 229.27-0.93L229.27-0.93Q228.79-0.88 228.35-0.88L228.35-0.88Q223.22-0.88 221.9-6.98L221.9-6.98Q221.51-8.69 221.46-10.74L221.46-10.74 227.32-10.64Q233.28-10.55 234.99-11.77L234.99-11.77Q236.31-12.74 236.31-14.55L236.31-14.55Q236.31-17.87 232.94-19.82L232.94-19.82Q230.54-21.24 227.42-21.24L227.42-21.24Q221.32-21.24 218.68-16.16L218.68-16.16Q217.31-13.53 217.31-10.21L217.31-10.21Q217.31-4.15 221.66-1.22L221.66-1.22Q224.25 0.49 227.57 0.49L227.57 0.49Q232.84 0.49 235.33-3.32L235.33-3.32Q235.72-4 236.01-4.69ZM249.48 0L263.45 0 263.45-1.27 257.59-1.27 257.59-14.4 267.65-14.4 267.65-15.82 257.59-15.82 257.59-28.03 265.4-28.03Q268.92-28.03 270.43-23.29L270.43-23.29Q270.53-23 270.58-22.8L270.58-22.8 271.26-20.51 272.24-20.51 271.99-29.3 249.48-29.3 249.48-28.03 253.39-28.03 253.39-1.27 249.48-1.27 249.48 0ZM291.82 0.49L291.82 0.49Q295.58 0.49 295.97-4.05L295.97-4.05Q296.01-4.35 296.01-4.59L296.01-4.59 294.75-4.64Q294.4-1.07 292.84-1.03L292.84-1.03Q291.57-1.12 291.52-3.56L291.52-3.56 291.52-13.87Q291.52-20.85 284.54-21.24L284.54-21.24Q284.1-21.24 283.66-21.24L283.66-21.24Q278.19-21.24 276.34-18.7L276.34-18.7Q275.75-17.87 275.75-17.04L275.75-17.04Q275.75-15.53 277.17-15.28L277.17-15.28Q277.41-15.23 277.66-15.23L277.66-15.23Q278.78-15.23 279.32-16.65L279.32-16.65Q280-18.46 280.24-18.8L280.24-18.8Q281.17-20.02 283.12-20.02L283.12-20.02Q287.71-19.73 287.86-14.99L287.86-14.99 287.86-11.91Q276.39-11.91 274.73-7.13L274.73-7.13Q274.43-6.2 274.43-5.13L274.43-5.13Q274.43-1.42 277.7-0.05L277.7-0.05Q279.02 0.49 280.49 0.49L280.49 0.49Q284.05 0.49 286.49-1.95L286.49-1.95Q287.37-2.88 287.81-3.91L287.81-3.91Q288.4 0.44 291.82 0.49ZM282.1-1.46L282.1-1.46Q279.12-1.46 278.44-4.44L278.44-4.44Q278.29-5.13 278.29-5.96L278.29-5.96Q278.29-9.23 282.05-10.11L282.05-10.11Q284.05-10.55 287.86-10.6L287.86-10.6 287.86-6.69Q287.13-3.32 284.3-1.95L284.3-1.95Q283.17-1.46 282.1-1.46ZM305.53-0.83L305.53-0.83Q308.9-0.83 310.07-2.88L310.07-2.88Q310.51-3.61 310.51-4.49L310.51-4.49Q310.51-6.54 307.54-8.01L307.54-8.01Q306.9-8.35 305.44-8.98L305.44-8.98Q301.43-10.64 300.11-12.11L300.11-12.11Q298.7-13.72 298.7-15.87L298.7-15.87Q298.7-19.24 302.41-20.61L302.41-20.61Q304.12-21.24 306.12-21.24L306.12-21.24Q309.34-21.24 311.69-19.87L311.69-19.87Q311.69-21.29 312.37-21.48L312.37-21.48Q312.66-21.53 313-21.53L313-21.53 313-15.43 311.74-15.43Q311.64-19.92 306.75-19.97L306.75-19.97Q303.09-19.97 302.21-17.82L302.21-17.82Q301.97-17.24 301.97-16.6L301.97-16.6Q301.97-14.5 305-13.04L305-13.04Q305.68-12.7 307.15-12.11L307.15-12.11Q311.1-10.5 312.42-9.03L312.42-9.03Q313.83-7.47 313.83-5.32L313.83-5.32Q313.83-1.37 309.64-0.05L309.64-0.05Q308.02 0.49 306.12 0.49L306.12 0.49Q302.6 0.44 300.02-1.27L300.02-1.27Q300.02 0 299.38 0.2L299.38 0.2Q299.09 0.24 298.7 0.24L298.7 0.24 298.7-7.18 300.07-7.18Q300.16-0.88 305.53-0.83ZM327.11-1.22L327.11-1.22 324.67-1.22 324.67-11.77Q324.67-16.21 327.75-18.21L327.75-18.21Q329.02-19.04 330.38-19.04L330.38-19.04Q333.36-19.04 334.54-16.26L334.54-16.26Q335.07-14.94 335.07-13.33L335.07-13.33 335.07-4.15Q335.07-1.9 334-1.46L334-1.46Q333.31-1.22 331.65-1.22L331.65-1.22 331.65 0 342.4 0Q342.4-1.07 341.66-1.17L341.66-1.17Q341.47-1.22 341.18-1.22L341.18-1.22 338.73-1.22 338.73-13.33Q338.73-18.65 335.22-20.56L335.22-20.56Q333.85-21.24 332.29-21.24L332.29-21.24Q328.68-21.24 326.23-18.6L326.23-18.6Q325.21-17.48 324.67-16.06L324.67-16.06 324.67-31.74 317.35-31.74 317.35-30.52 321.01-30.52 321.01-4.15Q321.01-1.9 319.74-1.46L319.74-1.46Q319.01-1.22 317.35-1.22L317.35-1.22 317.35 0 328.33 0Q328.33-1.07 327.6-1.17L327.6-1.17Q327.41-1.22 327.11-1.22ZM355.14-1.22L355.14-1.22 352.7-1.22 352.7-20.75 345.13-20.75 345.13-19.53 349.03-19.53 349.03-4.15Q349.03-1.9 347.52-1.42L347.52-1.42Q346.79-1.22 345.13-1.22L345.13-1.22 345.13 0 356.36 0Q356.36-1.07 355.63-1.17L355.63-1.17Q355.38-1.22 355.14-1.22ZM353.28-27.88L353.28-27.88Q353.28-29.59 351.77-30.32L351.77-30.32Q351.18-30.57 350.65-30.57L350.65-30.57Q348.94-30.57 348.2-29L348.2-29Q347.96-28.47 347.96-27.88L347.96-27.88Q347.96-26.07 349.57-25.39L349.57-25.39Q350.11-25.2 350.65-25.2L350.65-25.2Q352.36-25.2 353.04-26.76L353.04-26.76Q353.28-27.29 353.28-27.88ZM363.92-10.4L363.92-10.4Q363.92-17.97 368.08-19.63L368.08-19.63Q369.15-20.02 370.32-20.02L370.32-20.02Q375.74-20.02 376.62-13.18L376.62-13.18Q376.77-12.01 376.77-10.6L376.77-10.6Q376.77-2.39 372.27-0.98L372.27-0.98Q371.4-0.73 370.47-0.73L370.47-0.73Q365.54-0.73 364.27-6.59L364.27-6.59Q363.92-8.3 363.92-10.4ZM370.47-21.24L370.47-21.24Q365.78-21.24 362.66-18.02L362.66-18.02Q359.77-15.04 359.77-10.6L359.77-10.6Q359.77-4.44 364.27-1.37L364.27-1.37Q367 0.49 370.32 0.49L370.32 0.49Q375.01 0.49 378.09-2.83L378.09-2.83Q380.92-5.86 380.92-10.4L380.92-10.4Q380.92-16.55 376.38-19.53L376.38-19.53Q373.69-21.24 370.47-21.24ZM393.85-1.22L393.85-1.22 391.66-1.22 391.66-11.77Q391.8-16.31 394.88-18.31L394.88-18.31Q396.2-19.14 397.56-19.14L397.56-19.14Q400.54-19.14 401.62-16.36L401.62-16.36Q402.06-15.23 402.06-13.82L402.06-13.82 402.06-4.15Q402.06-1.9 400.79-1.46L400.79-1.46Q400.06-1.22 398.4-1.22L398.4-1.22 398.4 0 409.38 0Q409.38-1.07 408.65-1.17L408.65-1.17Q408.45-1.22 408.16-1.22L408.16-1.22 405.72-1.22 405.72-13.33Q405.72-18.21 402.35-20.31L402.35-20.31Q400.79-21.24 398.98-21.24L398.98-21.24Q395.37-21.24 393.02-18.36L393.02-18.36Q392.15-17.24 391.61-15.87L391.61-15.87 391.41-20.75 384.33-20.75 384.33-19.53 387.99-19.53 387.99-4.15Q387.99-1.9 386.73-1.46L386.73-1.46Q385.99-1.22 384.33-1.22L384.33-1.22 384.33 0 395.07 0Q395.07-1.07 394.34-1.17L394.34-1.17Q394.15-1.22 393.85-1.22ZM443.85-7.67L443.85-7.67Q443.85-12.01 439.16-14.65L439.16-14.65Q438.23-15.14 433.45-17.24L433.45-17.24Q429.1-19.09 427.98-21.04L427.98-21.04Q427.39-22.12 427.39-23.34L427.39-23.34Q427.39-26.61 430.57-27.88L430.57-27.88Q431.93-28.42 433.6-28.42L433.6-28.42Q437.7-28.42 439.85-25.63L439.85-25.63Q441.26-23.73 441.21-21L441.21-21 442.68-21 442.68-29.54Q441.51-29.54 441.31-28.81L441.31-28.81Q441.21-28.47 441.21-27.88L441.21-27.88Q437.75-29.79 433.4-29.79L433.4-29.79Q428.13-29.79 425.2-26.86L425.2-26.86Q423.24-24.8 423.24-22.07L423.24-22.07Q423.24-17.97 427.83-15.38L427.83-15.38Q428.66-14.94 433.4-12.89L433.4-12.89Q437.79-10.94 438.97-8.94L438.97-8.94Q439.6-7.81 439.6-6.49L439.6-6.49Q439.6-3.08 436.28-1.56L436.28-1.56Q434.72-0.88 432.81-0.88L432.81-0.88Q425.34-0.98 424.51-10.01L424.51-10.01 423.05-10.01 423.05 0.1Q424.22 0.1 424.42-0.59L424.42-0.59Q424.51-0.98 424.51-2L424.51-2Q428.27 0.49 433.06 0.49L433.06 0.49Q438.67 0.49 441.75-2.54L441.75-2.54Q443.85-4.69 443.85-7.67ZM447.26-20.75L447.26-19.53 450.68-19.53 450.68-5.76Q451.02 0.34 456.3 0.54L456.3 0.54Q460.79 0.54 461.91-4.98L461.91-4.98Q461.91-5.03 461.91-5.08L461.91-5.08 460.59-5.32Q459.37-1.27 457.03-0.93L457.03-0.93Q454.39-1.03 454.34-4.69L454.34-4.69 454.34-19.53 461.91-19.53 461.91-20.75 454.34-20.75 454.34-26.42 450.68-25.39 450.68-20.75 447.26-20.75ZM468.26-10.4L468.26-10.4Q468.26-17.97 472.41-19.63L472.41-19.63Q473.48-20.02 474.65-20.02L474.65-20.02Q480.07-20.02 480.95-13.18L480.95-13.18Q481.1-12.01 481.1-10.6L481.1-10.6Q481.1-2.39 476.61-0.98L476.61-0.98Q475.73-0.73 474.8-0.73L474.8-0.73Q469.87-0.73 468.6-6.59L468.6-6.59Q468.26-8.3 468.26-10.4ZM474.8-21.24L474.8-21.24Q470.11-21.24 466.99-18.02L466.99-18.02Q464.11-15.04 464.11-10.6L464.11-10.6Q464.11-4.44 468.6-1.37L468.6-1.37Q471.33 0.49 474.65 0.49L474.65 0.49Q479.34 0.49 482.42-2.83L482.42-2.83Q485.25-5.86 485.25-10.4L485.25-10.4Q485.25-16.55 480.71-19.53L480.71-19.53Q478.02-21.24 474.8-21.24ZM499.6-1.22L499.6-1.22 496.09-1.22 496.09-10.94Q496.09-15.38 498.82-18.07L498.82-18.07Q499.9-19.09 500.63-19.14L500.63-19.14Q501.46-19.14 502.14-17.92L502.14-17.92Q502.92-16.55 503.61-16.36L503.61-16.36Q503.9-16.26 504.19-16.26L504.19-16.26Q505.66-16.26 506.05-17.68L506.05-17.68Q506.15-17.97 506.15-18.26L506.15-18.26Q506.15-20.46 503.9-20.95L503.9-20.95Q503.41-21.04 502.97-21.04L502.97-21.04Q500.04-21.04 497.75-18.55L497.75-18.55Q496.67-17.38 496.04-15.92L496.04-15.92 495.84-20.75 488.76-20.75 488.76-19.53 492.43-19.53 492.43-4.15Q492.43-1.9 491.16-1.46L491.16-1.46Q490.42-1.22 488.76-1.22L488.76-1.22 488.76 0 500.82 0Q500.82-1.07 500.09-1.17L500.09-1.17Q499.9-1.22 499.6-1.22ZM518.55-20.02L518.55-20.02Q521.96-20.02 523.09-17.14L523.09-17.14Q523.48-16.21 523.48-15.14L523.48-15.14Q523.48-12.7 521.13-12.16L521.13-12.16Q519.91-11.91 517.67-11.96L517.67-11.96 512.49-12.11Q512.74-17.72 516.15-19.43L516.15-19.43Q517.28-20.02 518.55-20.02ZM527.04-4.69L527.04-4.69 525.82-5.13Q524.11-1.42 520.3-0.93L520.3-0.93Q519.82-0.88 519.38-0.88L519.38-0.88Q514.25-0.88 512.93-6.98L512.93-6.98Q512.54-8.69 512.49-10.74L512.49-10.74 518.35-10.64Q524.31-10.55 526.02-11.77L526.02-11.77Q527.34-12.74 527.34-14.55L527.34-14.55Q527.34-17.87 523.97-19.82L523.97-19.82Q521.57-21.24 518.45-21.24L518.45-21.24Q512.34-21.24 509.71-16.16L509.71-16.16Q508.34-13.53 508.34-10.21L508.34-10.21Q508.34-4.15 512.69-1.22L512.69-1.22Q515.27 0.49 518.59 0.49L518.59 0.49Q523.87 0.49 526.36-3.32L526.36-3.32Q526.75-4 527.04-4.69Z" opacity="1" transform="matrix(1,0,0,1,0,0)" fill="#000000" class="slogan-text-1" data-fill-palette-color="secondary" id="text-1"></path></svg></g></svg></g></svg></g></svg></g></svg></g><defs></defs></svg><rect width="395.52" height="100.86436782285283" fill="none" stroke="none" visibility="hidden"></rect></g></svg></g></svg>