<svg width="32" height="32" viewBox="0 0 32 32" fill="none" xmlns="http://www.w3.org/2000/svg">
<path fill-rule="evenodd" clip-rule="evenodd" d="M25 2C22.2386 2 20 4.23858 20 7C20 7.45305 20.0603 7.89202 20.1732 8.30934C20.1721 8.30527 20.171 8.3012 20.1699 8.29712L10.9348 12.9146C11.345 13.437 11.6534 14.0431 11.8302 14.703L21.0653 10.0855C21.9807 11.2512 23.4029 12 25 12C27.7614 12 30 9.76142 30 7C30 4.23858 27.7614 2 25 2ZM22 7C22 5.34315 23.3431 4 25 4C26.6569 4 28 5.34315 28 7C28 8.65685 26.6569 10 25 10C23.3431 10 22 8.65685 22 7Z" fill="black"/>
<path fill-rule="evenodd" clip-rule="evenodd" d="M10.9348 19.0854C11.345 18.563 11.6534 17.957 11.8302 17.297L21.0653 21.9146C21.9807 20.7488 23.4029 20 25 20C27.7615 20 30 22.2386 30 25C30 27.7614 27.7615 30 25 30C22.2386 30 20 27.7614 20 25C20 24.5514 20.0591 24.1166 20.1699 23.703L10.9348 19.0854ZM22 25C22 23.3432 23.3432 22 25 22C26.6569 22 28 23.3432 28 25C28 26.6569 26.6569 28 25 28C23.3432 28 22 26.6569 22 25Z" fill="black"/>
<path fill-rule="evenodd" clip-rule="evenodd" d="M7 11C4.23858 11 2 13.2386 2 16C2 18.7614 4.23858 21 7 21C9.76142 21 12 18.7614 12 16C12 13.2386 9.76142 11 7 11ZM4 16C4 14.3432 5.34315 13 7 13C8.65685 13 10 14.3432 10 16C10 17.6569 8.65685 19 7 19C5.34315 19 4 17.6569 4 16Z" fill="black"/>
</svg>
