<svg width="32" height="32" viewBox="0 0 32 32" fill="none" xmlns="http://www.w3.org/2000/svg">
<path d="M27.1335 10.2258C27.1505 10.4753 27.1505 10.7249 27.1505 10.9767C27.1505 18.6502 21.3719 27.5 10.8055 27.5V27.4954C7.68418 27.5 4.62767 26.5962 2 24.892C2.45387 24.9472 2.91001 24.9748 3.3673 24.9759C5.95401 24.9782 8.46679 24.1008 10.5018 22.4852C8.04363 22.438 5.88804 20.8178 5.135 18.4524C5.9961 18.6203 6.88336 18.5858 7.72854 18.3523C5.04855 17.805 3.12046 15.4246 3.12046 12.6602V12.5866C3.91899 13.0362 4.81308 13.2857 5.72765 13.3133C3.20349 11.608 2.42543 8.21342 3.94971 5.55938C6.8663 9.18741 11.1695 11.393 15.789 11.6264C15.326 9.60943 15.9585 7.49586 17.4509 6.078C19.7646 3.87934 23.4035 3.99203 25.5785 6.32984C26.865 6.0734 28.0981 5.59618 29.2265 4.92003C28.7976 6.26429 27.9001 7.40617 26.7012 8.13177C27.8399 7.99608 28.9523 7.6879 30 7.21758C29.2288 8.38591 28.2573 9.40359 27.1335 10.2258Z" fill="black"/>
</svg>
