<svg width="32" height="32" viewBox="0 0 32 32" fill="none" xmlns="http://www.w3.org/2000/svg">
<path d="M22.928 4.5099C22.2948 4.47752 21.6564 4.52399 21.032 4.65776C20.4533 4.78262 20.0702 5.36466 20.1934 5.95139C20.3166 6.53812 20.8906 6.92631 21.4697 6.80145C23.2519 6.41796 25.1932 6.96339 26.5013 8.42788C27.8047 9.89706 28.1556 11.9206 27.5952 13.6766C27.4127 14.2497 27.7226 14.8594 28.2877 15.0444C28.8482 15.2293 29.4543 14.9106 29.6368 14.3421C30.4208 11.8704 29.9467 9.05216 28.1057 6.98686C26.7244 5.43882 24.833 4.60237 22.928 4.5099ZM13.2662 7.76275C11.3109 7.97539 8.5809 9.51826 6.15658 11.9764C3.51759 14.6557 2 17.5068 2 19.9598C2 24.6541 7.92944 27.5 13.7404 27.5C21.3559 27.5 26.4285 23.0047 26.4285 19.4425C26.4285 17.2894 24.6463 16.0653 23.0377 15.5616C22.641 15.4415 22.3587 15.3861 22.5636 14.8594C23.0102 13.7183 23.083 12.7157 22.6 12.0135C21.6933 10.6969 19.1775 10.7659 16.3289 11.9764C16.3289 11.9764 15.4446 12.4017 15.6728 11.6807C16.1105 10.2533 16.0284 9.047 15.3447 8.35418C14.8613 7.86414 14.1547 7.66559 13.2662 7.76275ZM22.7456 8.35418C22.4357 8.3401 22.1394 8.36357 21.8342 8.42788C21.333 8.53396 20.9956 9.0653 21.1048 9.57365C21.214 10.0773 21.7016 10.3866 22.1986 10.2759C22.7955 10.1463 23.475 10.3406 23.9122 10.8302C24.35 11.3198 24.4638 11.9807 24.2767 12.5674C24.1218 13.057 24.377 13.5883 24.86 13.7503C25.343 13.9075 25.8718 13.6484 26.0267 13.1588C26.4094 11.9577 26.1588 10.581 25.2609 9.57365C24.5917 8.82075 23.6756 8.39549 22.7456 8.35418ZM14.3601 14.6003C18.2339 14.7388 21.3512 16.7069 21.6158 19.4054C21.9168 22.4916 18.4117 25.3746 13.7767 25.8365C9.14184 26.2984 5.10845 24.1551 4.80745 21.0689C4.50646 17.9827 8.04797 15.0997 12.6829 14.6379C13.2616 14.5773 13.8085 14.582 14.3601 14.6003ZM12.5368 16.8919C10.8596 17.0538 9.28277 18.0376 8.56271 19.5162C7.58738 21.5261 8.52164 23.7759 10.7504 24.5058C13.0609 25.2587 15.782 24.0899 16.7298 21.9185C17.6641 19.7978 16.4974 17.6358 14.214 17.0397C13.6629 16.8966 13.0978 16.8365 12.5368 16.8919ZM13.5943 19.4796C13.6671 19.4796 13.7081 19.489 13.7767 19.5167C14.0595 19.6228 14.1869 19.9372 14.032 20.2189C13.8678 20.5005 13.5126 20.6301 13.2298 20.5146C12.9517 20.3991 12.856 20.0893 13.011 19.8124C13.1342 19.604 13.3754 19.4838 13.5943 19.4796ZM11.443 20.1447C11.639 20.1494 11.8485 20.1771 12.0263 20.2555C12.751 20.5695 12.9788 21.4106 12.5368 22.1405C12.0902 22.8657 11.1466 23.2126 10.4224 22.8798C9.71117 22.5517 9.50163 21.7017 9.94823 20.9948C10.281 20.4681 10.8596 20.1353 11.443 20.1447Z" fill="black"/>
</svg>
